<?xml version="1.0" encoding="utf-8"?>
<!-- Generator: Adobe Illustrator 16.0.0, SVG Export Plug-In . SVG Version: 6.00 Build 0)  -->
<!DOCTYPE svg PUBLIC "-//W3C//DTD SVG 1.1//EN" "http://www.w3.org/Graphics/SVG/1.1/DTD/svg11.dtd">
<svg version="1.1" id="bin" xmlns="http://www.w3.org/2000/svg" xmlns:xlink="http://www.w3.org/1999/xlink" x="0px" y="0px"
	 width="100px" height="100px" viewBox="0 0 100 100" enable-background="new 0 0 100 100" xml:space="preserve">
<g id="Layer_4">
	<g>
		<g>
			<path fill-rule="evenodd" clip-rule="evenodd" fill="#FFFFFF" d="M63.406,68.12c0.484-0.833,0.963-1.668,1.447-2.498
				c1.303-2.24,2.604-4.48,3.906-6.721c0.654-1.127,0.855-2.281,0.146-3.458c-1.645-2.729-3.328-5.435-4.932-8.188
				c-0.363-0.619-0.646-0.604-1.186-0.323c-2.537,1.314-5.078,2.618-7.639,3.884c-0.566,0.281-0.369,0.566-0.178,0.917
				c2.207,4.017,4.443,8.015,6.602,12.054C62.303,65.146,63.365,66.396,63.406,68.12z M26.538,61.872
				c0,0.091-0.029,0.185,0.003,0.241c1.729,3.012,3.457,6.023,5.202,9.025c0.457,0.784,1.067,1.47,2.002,1.621
				c0.71,0.118,1.452,0.056,2.18,0.05c2.746-0.028,5.492-0.066,8.239-0.104c0.392-0.006,0.785,0.07,0.813-0.569
				c0.128-2.826,0.283-5.65,0.472-8.474c0.043-0.66-0.111-0.878-0.813-0.889c-3.688-0.06-7.378-0.129-11.062-0.283
				C31.234,62.391,28.856,62.643,26.538,61.872z M52.279,61.085c-0.16,0.051-0.236,0.054-0.258,0.088
				c-1.41,2.404-2.826,4.806-4.204,7.228c-0.113,0.198-0.058,0.593,0.068,0.812c0.865,1.504,1.763,2.989,2.662,4.473
				c0.581,0.963,1.18,1.915,1.772,2.872c0.137-0.519,0.129-0.99,0.078-1.456c-0.064-0.595,0.111-0.91,0.771-0.926
				c1.113-0.027,2.227-0.079,3.336-0.183c0.9-0.084,1.85-0.112,2.674-0.427c2.412-0.92,3.881-4.147,3.037-6.593
				c-0.289-0.848-0.824-1.608-1.178-2.441c-0.354-0.841-0.955-1.065-1.816-1.046c-1.973,0.047-3.947,0.016-5.92,0.013
				c-1.023,0-1.023-0.004-1.023-1.06C52.277,61.998,52.279,61.558,52.279,61.085z"/>
			<path fill-rule="evenodd" clip-rule="evenodd" d="M50.741,32.772c-1.845,1.083-2.662,2.985-3.712,4.692
				c-2.221,3.608-4.41,7.236-6.596,10.865c-0.311,0.515-0.582,0.644-1.13,0.275c-2.334-1.569-4.684-3.117-7.056-4.63
				c-0.496-0.316-0.575-0.536-0.283-1.055c1.618-2.871,3.157-5.786,4.825-8.628c0.319-0.543,1.082-0.838,1.661-1.213
				c0.231-0.15,0.521-0.208,0.784-0.308C43.07,32.772,46.906,32.772,50.741,32.772z"/>
			<path fill-rule="evenodd" clip-rule="evenodd" d="M55.029,32.772c0.535,0.089,1.031,0.145,1.34,0.269
				c0.447,0.179,0.389-0.03,1.105,0.924c0.854,1.139,2.518,3.664,3.27,4.872c0.301,0.485,0.471,0.51,1.037,0.206
				c0.418-0.225,0.805-0.442,1.352-0.656c-0.346,0.654-0.682,1.313-1.037,1.962c-0.988,1.797-1.969,3.597-2.994,5.371
				c-0.156,0.269-0.535,0.575-0.814,0.579c-2.857,0.043-5.715,0.026-8.651-0.128c0.511-0.306,1.01-0.64,1.54-0.908
				c0.541-0.274,0.629-0.572,0.311-1.11c-1.12-1.884-2.183-3.801-3.303-5.684c-0.281-0.474-0.318-0.848,0.003-1.308
				c0.358-0.513,0.613-1.094,0.966-1.611c0.897-1.316,1.901-2.072,3.385-2.49C53.449,32.803,53.896,32.743,55.029,32.772z"/>
			<path fill-rule="evenodd" clip-rule="evenodd" d="M24.124,53.895c0.631-1.085,0.901-1.541,1.337-2.319
				c0.194-0.346,0.349-0.715,0.521-1.073c0.633-1.325,0.633-1.324-0.652-1.998c-0.25-0.131-0.497-0.266-0.741-0.546
				c0.426,0,0.852,0.005,1.276-0.001c2.375-0.031,4.75-0.048,7.124-0.111c0.553-0.015,0.898,0.138,1.171,0.626
				c1.308,2.338,2.639,4.661,3.958,6.99c0.021,0.038,0.156,0.296-0.014,0.271c-0.471-0.251-0.976-0.45-1.479-0.804
				c-0.521-0.368-0.769-0.216-1.055,0.291c-1.063,1.881-2.175,3.735-3.241,5.613c-0.287,0.504-0.623,0.699-1.23,0.702
				c-1.352,0.007-2.156,0.003-3.396-0.228c-1.506-0.28-2.429-1.479-3.286-2.667c-0.078-0.107-0.292-0.677-0.292-0.945
				C24.124,56.208,23.963,55.401,24.124,53.895z"/>
			<path fill-rule="evenodd" clip-rule="evenodd" d="M63.406,68.12c-0.041-1.724-1.104-2.974-1.832-4.333
				c-2.158-4.039-4.395-8.037-6.602-12.054c-0.191-0.351-0.389-0.636,0.178-0.917c2.561-1.266,5.102-2.569,7.639-3.884
				c0.539-0.28,0.822-0.296,1.186,0.323c1.604,2.753,3.287,5.459,4.932,8.188c0.709,1.177,0.508,2.331-0.146,3.458
				c-1.303,2.24-2.604,4.48-3.906,6.721C64.369,66.452,63.891,67.287,63.406,68.12z"/>
			<path fill-rule="evenodd" clip-rule="evenodd" d="M26.538,61.872c2.318,0.771,4.696,0.519,7.037,0.618
				c3.684,0.154,7.373,0.224,11.062,0.283c0.701,0.011,0.855,0.229,0.813,0.889c-0.188,2.823-0.344,5.647-0.472,8.474
				c-0.028,0.64-0.422,0.563-0.813,0.569c-2.747,0.038-5.493,0.076-8.239,0.104c-0.728,0.006-1.47,0.068-2.18-0.05
				c-0.935-0.151-1.545-0.837-2.002-1.621c-1.745-3.002-3.473-6.014-5.202-9.025C26.508,62.057,26.538,61.963,26.538,61.872z"/>
			<path fill-rule="evenodd" clip-rule="evenodd" d="M52.279,61.085c0,0.473-0.002,0.913,0,1.354c0,1.056,0,1.06,1.023,1.06
				c1.973,0.003,3.947,0.034,5.92-0.013c0.861-0.02,1.463,0.205,1.816,1.046c0.354,0.833,0.889,1.594,1.178,2.441
				c0.844,2.445-0.625,5.673-3.037,6.593c-0.824,0.314-1.773,0.343-2.674,0.427c-1.109,0.104-2.223,0.155-3.336,0.183
				c-0.66,0.016-0.693,0.312-0.771,0.926c0.051,0.466,0.059,0.938-0.078,1.456c-0.592-0.957-1.191-1.909-1.772-2.872
				c-0.899-1.483-1.797-2.969-2.662-4.473c-0.126-0.219-0.182-0.613-0.068-0.812c1.378-2.422,2.794-4.823,4.204-7.228
				C52.043,61.139,52.104,61.085,52.279,61.085z"/>
		</g>
		<path fill-rule="evenodd" clip-rule="evenodd" d="M60.203,7.946c0,2.136-1.076,3.866-2.404,3.866H34.332
			c-1.326,0-2.402-1.73-2.402-3.866l0,0c0-2.136,1.076-3.866,2.402-3.866h23.467C59.127,4.08,60.203,5.811,60.203,7.946
			L60.203,7.946z"/>
		<path fill-rule="evenodd" clip-rule="evenodd" d="M81.182,19.69c-0.201,2.06-0.473,4.115-0.592,6.18
			c-0.311,5.381-0.549,10.765-0.832,16.146c-0.334,6.364-0.686,12.728-1.037,19.091c-0.02,0.336-0.109,0.667-0.176,1.031
			c-2.354-0.156-4.641-0.308-7.162-0.473c0.609-11.471,1.219-22.93,1.832-34.491c0.031-0.603,0.107-1.134-0.189-1.459
			c-0.373-0.411-0.795-0.349-1.336-0.349c-16.727,0-33.292,0-50.025,0c-0.617,0-1.237-0.088-1.571,0.371
			c-0.241,0.332-0.224,0.758-0.195,1.293c0.204,3.906,0.402,7.746,0.601,11.584c0.522,10.011,1.04,20.021,1.568,30.031
			c0.221,4.166,0.446,8.333,0.702,12.498c0.142,2.308,0.934,3,3.294,3c8.405,0.002,16.811,0.002,25.216,0c0.631,0,1.266,0,1.809,0
			c0.842,2.579,1.641,5.028,2.586,7.93c-7.064,0-22.591,0-30.789,0c-4.2-0.057-7.76-3.037-8.764-7.126
			c-0.559-2.273-0.603-4.688-0.744-7.045c-0.558-9.245-1.081-18.493-1.586-27.741c-0.44-8.094-0.838-16.192-1.257-24.288
			c-0.077-1.482-0.255-5.604-0.255-6.184C35.248,19.69,58.215,19.69,81.182,19.69z"/>
		<path fill-rule="evenodd" clip-rule="evenodd" d="M11.465,13.997c0-0.581-0.13-1.175,0-1.74c0.633-2.768,3.269-3.511,6.098-3.511
			c16.717,0,54.431-0.019,58.078,0c2.781,0.013,4.635,1.327,5,3.794c0.17,1.165,0.072,1.983-0.201,3.603
			c-0.213,1.259,0.148,1.671-1.535,1.671c-5.746,0-51.332,0-65.369,0c-0.961,0-1.323-0.141-1.55-0.775
			C11.533,15.77,11.68,15.164,11.465,13.997z"/>
		
			<circle fill-rule="evenodd" clip-rule="evenodd" stroke="#FFFFFF" stroke-width="2.9" stroke-miterlimit="10" cx="72.007" cy="80.159" r="16.856"/>
		<path fill="#FFFFFF" d="M84.24,80.159c0,1.401-1.135,2.537-2.537,2.537H62.309c-1.4,0-2.537-1.136-2.537-2.537l0,0
			c0-1.402,1.137-2.538,2.537-2.538h19.395C83.105,77.621,84.24,78.757,84.24,80.159L84.24,80.159z"/>
	</g>
</g>
</svg>
